<svg width="62" height="61" viewBox="0 0 62 61" fill="none" xmlns="http://www.w3.org/2000/svg">
<path d="M49.39 18.9473L40.532 12.1927L34.7488 13.8092L26.124 7.73572L11.9254 19.0117C12.467 19.1941 13.1491 19.3737 13.8915 19.5488L26.1838 9.78656L34.4359 15.5979L40.1816 13.9922L47.428 19.5183C48.184 19.3364 48.8456 19.1478 49.3889 18.9546V18.9479L49.39 18.9473Z" fill="black" fill-opacity="0.35"/>
<path d="M31.0562 16.57L25.9653 9.48663L34.5901 15.5601L31.0562 16.57Z" fill="black" fill-opacity="0.35"/>
<path d="M30.5681 23.4901C21.0547 23.4901 12.9494 22.3368 9.70618 20.7123L23.7211 44.713H24.5749L30.0641 38.5339L36.4565 53.2654H37.6728L51.7332 20.5565C48.7119 22.2633 40.3852 23.4907 30.5681 23.4907V23.4901Z" fill="black" fill-opacity="0.35"/>
</svg>
