<?xml version="1.0" encoding="UTF-8"?>
<svg id="Capa_1" xmlns="http://www.w3.org/2000/svg" viewBox="0 0 1080 1080">
  <defs>
    <style>
      .cls-1 {
        fill: #fff;
      }
    </style>
  </defs>
  <path class="cls-1" d="M868.2,335.46l-155.71-119.59-101.66,28.62-151.61-107.53-249.59,199.64c9.52,3.23,21.51,6.41,34.56,9.51l216.08-172.84,145.06,102.89,101-28.43,127.38,97.84c13.29-3.22,24.92-6.56,34.47-9.98v-.12Z"/>
  <polygon class="cls-1" points="545.92 293.37 456.43 167.96 608.04 275.49 545.92 293.37"/>
  <path class="cls-1" d="M537.34,415.89c-167.23,0-309.71-20.42-366.72-49.18h0s246.36,424.93,246.36,424.93h15.01l96.49-109.4,112.37,260.82h21.38l247.16-579.11h0c-53.11,30.22-199.48,51.95-372.05,51.95Z"/>
</svg>