<?xml version="1.0" encoding="UTF-8"?>
<svg id="Capa_1" xmlns="http://www.w3.org/2000/svg" viewBox="0 0 1920 1080">
  <defs>
    <style>
      .cls-1 {
        fill: #8cb4ff;
      }

      .cls-2 {
        fill: #fff;
      }
    </style>
  </defs>
  <g>
    <path class="cls-2" d="M546.48,451.44h34.94l30.42,101.56c4.27,14.33,5.79,24.38,5.79,39.72v7.29h8.3v-7.04c0-14.83,1.26-24.89,5.78-39.47l29.92-102.06h35.19l29.66,102.06c4.02,14.07,5.53,24.38,5.53,39.47v7.04h8.3v-7.29c0-14.83,1.51-25.14,5.78-39.72l30.42-101.56h33.18l-52.79,175.97h-39.21l-28.66-95.53c-4.27-14.33-5.78-24.38-5.78-39.46v-13.83h-8.3v13.83c0,14.83-1.51,24.89-5.78,39.46l-29.16,95.53h-40.73l-52.79-175.97Z"/>
    <path class="cls-2" d="M829.47,466.25c0-9.85,7.58-17.43,17.62-17.43s17.81,7.58,17.81,17.43-7.77,17.8-17.81,17.8-17.62-7.58-17.62-17.8ZM831.23,496.42h31.92v130.98h-31.92v-130.98Z"/>
    <path class="cls-2" d="M882.15,593.72l26.14-18.86c4.78,20.62,22.38,32.18,46.76,32.18,21.87,0,35.7-8.54,35.7-19.61,0-15.33-17.85-16.09-39.47-17.35-22.62-1-62.84-1.51-62.84-36.7,0-28.66,29.16-43.99,63.34-43.99s58.83,13.57,67.87,32.42l-27.9,16.34c-3.77-15.08-19.11-24.64-40.47-24.64s-32.42,6.79-32.42,17.35c0,12.57,14.83,13.07,36.7,14.07,21.87.76,66.87,1.51,66.87,39.47,0,29.16-30.42,46.51-68.37,46.51s-61.84-14.58-71.9-37.2Z"/>
    <path class="cls-2" d="M1036.1,560.54c0-42.99,28.91-71.39,73.91-71.39,47.51,0,75.67,30.67,71.89,80.44l-90.5-.25c-12.06,0-17.09-3.77-17.85-15.08h-7.04l-.25,5.78c0,29.92,16.6,48.01,43.49,48.01,21.62,0,36.71-12.56,41.98-32.42l23.38,20.61c-12.07,22.38-35.19,34.95-65.11,34.95-44.99,0-73.91-27.15-73.91-70.64ZM1151.48,546.21c-2.51-21.11-19.1-33.18-41.48-33.18s-37.96,12.07-42.23,33.18h83.71Z"/>
    <path class="cls-2" d="M1202.41,451.44h31.93v175.97h-31.93v-175.97Z"/>
    <path class="cls-2" d="M1255.36,560.03c0-41.73,30.16-70.63,73.91-70.63s74.15,28.91,74.15,70.63-30.16,71.14-74.15,71.14-73.91-28.91-73.91-71.14ZM1372.24,560.03c0-26.64-17.85-45.25-42.98-45.25s-42.74,18.6-42.74,45.25,17.6,45.75,42.74,45.75,42.98-18.85,42.98-45.75Z"/>
    <path class="cls-2" d="M1416.44,560.03c0-41.73,30.16-70.63,73.91-70.63s74.15,28.91,74.15,70.63-30.16,71.14-74.15,71.14-73.91-28.91-73.91-71.14ZM1533.33,560.03c0-26.64-17.85-45.25-42.98-45.25s-42.74,18.6-42.74,45.25,17.6,45.75,42.74,45.75,42.98-18.85,42.98-45.75Z"/>
    <path class="cls-2" d="M1682.28,627.66l-65.36-61.59v61.34h-31.43v-175.97h31.43v103.57l65.36-61.58h41.73l-55.05,50.02c-10.81,10.05-19.85,13.57-34.94,13.57h-7.29v7.29h9.3c14.83,0,23.88,3.26,34.94,13.57l55.05,50.02-43.74-.25Z"/>
  </g>
  <g>
    <path class="cls-2" d="M444.95,466.46c-19.92,7.13-63.54,13.51-119.04,13.51s-98.02-6.38-117.89-13.15l89.79-71.82,54.54,38.68,36.57-10.29,56.02,43.03v.04Z"/>
    <polygon class="cls-1" points="330.01 440.11 297.82 395 352.36 433.68 330.01 440.11"/>
    <path class="cls-1" d="M325.92,495.35c-60.16,0-111.43-7.35-131.94-17.69h0s88.63,152.88,88.63,152.88h5.4l34.71-39.36,40.43,93.84h7.69l88.92-208.35h0c-19.11,10.87-71.77,18.69-133.85,18.69Z"/>
  </g>
</svg>