<?xml version="1.0" encoding="UTF-8"?>
<svg id="Capa_1" xmlns="http://www.w3.org/2000/svg" viewBox="0 0 1080 1080">
  <defs>
    <style>
      .cls-1 {
        fill: #8cb4ff;
      }

      .cls-2 {
        fill: #371bff;
      }
    </style>
  </defs>
  <rect id="back" x="0" width="1080" height="1080" rx="257.73" ry="257.73"/>
  <g>
    <path class="cls-1" d="M868.27,331.67c-55.37,19.82-176.64,37.56-330.94,37.56s-272.51-17.73-327.75-36.56l249.64-199.68,151.63,107.55,101.68-28.62,155.73,119.62v.12Z"/>
    <polygon class="cls-2" points="548.71 258.43 459.22 133 610.85 240.55 548.71 258.43"/>
    <path class="cls-2" d="M537.33,411.99c-167.26,0-309.78-20.43-366.8-49.19h0s246.41,425.01,246.41,425.01h15.02l96.51-109.42,112.4,260.88h21.38l247.21-579.23h0c-53.12,30.22-199.52,51.96-372.13,51.96Z"/>
  </g>
</svg>