<?xml version="1.0" encoding="UTF-8"?>
<svg xmlns="http://www.w3.org/2000/svg" version="1.1" viewBox="0 0 623.6 177.1">
  <defs>
    <style>
      .cls-1 {
        fill: #f6a23d;
      }
    </style>
  </defs>
  <!-- Generator: Adobe Illustrator 28.7.1, SVG Export Plug-In . SVG Version: 1.2.0 Build 142)  -->
  <g>
    <g id="Capa_1">
      <g>
        <path class="cls-1" d="M255.5,133.3c-.3.3-.5.5-.8.7-.9.8-2,1.5-3,2.1s-.5.3-.8.4c-1,.6-2.1,1.1-3.2,1.5s-1.5.6-2.3.8c-2.5.7-5,1.1-7.6,1.1-8.2.1-14.7-4-19.7-10.7-5.5-7.3-6-20.9-.9-28.9,3.8-5.9,9.1-10.4,16.3-11.7,4.6-.8,9.2-.4,13.5,1.4,2.1.9,4.1,2,6,3.3,1.5,1,4.4,3.3,6.7,4.9v-24.6c-5.8-3-12.1-4.5-18.6-5-8.2-.6-16.1,1-23.6,4.2-12.1,5.2-19.6,14.8-23.1,27.3-2.4,8.6-2.7,17.4-.4,26.3,3,12.1,9.7,21.3,20.5,27.3,5.3,3,11.3,4.8,17.3,5.4,4.3.5,8.7.4,13-.2,4.3-.6,8.5-1.9,12.6-3.5s.6-.2.9-.4c.4-.2.7-.3,1.1-.6.5-.4.4-1.1.4-1.7s0-1.5,0-2.2c0-2.1,0-4.3,0-6.4s0-4.8,0-7.3,0-4,0-6,0-1.7,0-2.5c0,0-.1.1-.1.2,0,0-.1.1-.2.2-.8.9-1.5,1.8-2.3,2.7s-1.1,1.1-1.6,1.7Z"/>
        <path class="cls-1" d="M287.5,122.7c.2,3.9,1.2,5.3,3,8.4,1.8,3,4.4,5.4,7.7,7.2,3.4,1.7,7.5,2.6,12.3,2.6s7.9-.6,11.2-1.7c3.3-1.1,6-2.5,8.3-4,2.3-1.6,3.9-3.2,5-4.8l10.5,16.1c-1.9,2.5-4.4,4.8-7.4,6.8-3,2-6.9,3.7-11.6,4.9-4.7,1.2-10.6,1.8-17.6,1.8s-16.7-1.8-23.4-5.5-11.9-9-15.7-15.9c-3.8-6.9-5.7-15.2-5.7-24.7s1.7-15.8,5.1-22.5c3.4-6.7,8.3-12,14.7-15.8,6.4-3.9,14.1-5.8,23.1-5.8s15.8,1.7,22,5.1c6.2,3.4,11,8.4,14.4,15,3.4,6.6,5.1,14.6,5.1,24.1s0,1.7,0,3.4c0,1.7-.1,4.8-.2,5.3h-60.7ZM325,105.4c0-2.2-.7-5.6-1.9-8.2-1.2-2.6-3.1-4.7-5.7-6.5-2.6-1.8-6-2.7-10.2-2.7s-7.8.9-10.5,2.6c-2.7,1.8-4.8,3.9-6.1,6.4-1.3,2.5-2.2,5.9-2.4,8.4h36.9Z"/>
        <path class="cls-1" d="M405.5,122.7c.2,3.9,1.2,5.3,3,8.4,1.8,3,4.4,5.4,7.7,7.2,3.4,1.7,7.5,2.6,12.3,2.6s7.9-.6,11.2-1.7c3.3-1.1,6-2.5,8.3-4,2.3-1.6,3.9-3.2,5-4.8l10.5,16.1c-1.9,2.5-4.4,4.8-7.4,6.8-3,2-6.9,3.7-11.6,4.9-4.7,1.2-10.6,1.8-17.6,1.8s-16.7-1.8-23.4-5.5-11.9-9-15.7-15.9c-3.8-6.9-5.7-15.2-5.7-24.7s1.7-15.8,5.1-22.5c3.4-6.7,8.3-12,14.7-15.8,6.4-3.9,14.1-5.8,23.1-5.8s15.8,1.7,22,5.1c6.2,3.4,11,8.4,14.4,15,3.4,6.6,5.1,14.6,5.1,24.1s0,1.7,0,3.4c0,1.7-.1,4.8-.2,5.3h-60.7ZM443,105.4c0-2.2-.7-5.6-1.9-8.2-1.2-2.6-3.1-4.7-5.7-6.5-2.6-1.8-6-2.7-10.2-2.7s-7.8.9-10.5,2.6c-2.7,1.8-4.8,3.9-6.1,6.4-1.3,2.5-2.2,5.9-2.4,8.4h36.9Z"/>
        <path class="cls-1" d="M614.3,70.2s0,0-.1,0c-.6,0-1.2.2-1.7.3,0,0,0,0,0,0-.3.1-.6.2-.9.4-.1,0-.3.1-.4.2-.1,0-.3.1-.4.2-.2,0-.3.1-.4.2-1.2.5-2.4,1-3.5,1.5-1.2.5-2.4,1-3.5,1.5-1.2.5-2.4,1-3.5,1.6-1.2.5-2.3,1.1-3.5,1.6-.1,0-.3.1-.4.2-1.5.7-2.5.6-3.8-.3-2.7-1.8-5.5-3.8-8.5-5-7.5-3-15.4-2.8-23.2-1.3-11.3,2.3-19.6,8.8-25.6,18.4-3.7,5.9-5.5,12.4-6.3,19.4-.9,7.7,0,15.2,2.7,22.1,5.7,14.2,16,23.4,31.4,26.3,8.5,1.6,16.7.7,24.4-3.3,2.4-1.2,5.1-3.6,8-5.5v8.5h0s0,0,0,0h19.6v-86.8c0,0,0-.1,0-.2ZM587.2,132.8c-5.5,5.4-12.4,7.4-20.3,5.9-5.3-1-9.8-3.4-13.1-7.4-5.5-6.5-7.3-14-5.6-22.5.9-4.6,2.6-8.8,5.7-12.2,4.8-5.1,10.7-7.7,17.6-7.3,10.3-.5,20.2,7.5,22.3,18,1.9,9.7.6,18.5-6.6,25.5Z"/>
        <g>
          <path class="cls-1" d="M356.6,157.1h20.2V30.3c-6.9,2.9-13.6,5.7-20.2,8.5v118.3Z"/>
          <path class="cls-1" d="M516.7,70.5c-.4,0-.8,0-1.3,0-3.8.2-7.5,1-11,2.2s-6.6,3.2-9.9,4.8v-8.5c-.1,0-20.9,8.6-20.9,8.6v80.3h20.9s0-30.7,0-30.7c0-5.4-.2-10.8,0-16.2.1-4.8.7-9.4,3.6-13.3,2.8-3.7,6.7-6.1,11.3-7,4.9-1,10.8-.6,15.5,1.3.3.1,3.5,1.3,3.5,1.4,0-7.5,0-14.6,0-22.4-3.9-.2-7.8-.7-11.7-.6Z"/>
        </g>
      </g>
      <g>
        <path class="cls-1" d="M12.4,94.6c0,.3-.1.6-.2.9-2.6-5.9-3.2-12.5-3.1-18.9.5-20.6,9.6-41,24.7-55C49,7.6,70.1,0,90.7,1.6c20.6,1.6,40.4,12.3,52.7,28.8,8.2,10.9,12.7,24.4,8.6,37.9-1.9,6.4-6.5,10.9-12.2,14.2-4.9,2.8-10.4,4.5-16,5-11,.9-22-2.7-31.3-8.6-9.4-6-17.5-14.6-27.9-19.2-11.4-5-23.4-3-33.3,4.3-3.4,2.5-6.4,5.4-9,8.7-4.9,6.4-8.4,13.9-10,21.8Z"/>
        <path class="cls-1" d="M94.3,85.8c-5.7-3.1-11.1-6.6-16.2-10.6-5.1-4-9.6-8.2-15.7-10.6-13.9-5.6-30.2.5-38.2,12.9-9.2,14.1-8.4,32.5-3.3,47.9.7,2.1,1.5,4.2,2.4,6.2.4.9.8,1.7,1.2,2.6,7.5,15.8,20.4,28.4,36.5,35.2,16.4,6.9,36.5,8.7,53.5,2.3,5.2-1.9,10.5-4.7,13.8-9.3-8,.8-16.1.4-24.1-.4-7.6-.8-15.1-3.5-21.3-7.9-12.1-8.7-19.6-23.7-16-38.7.7-3.1,1.9-6.1,3.4-8.8,4.2-7.4,11.1-12.4,18-17.1,1.9-1.3,3.9-2.6,5.9-3.8Z"/>
        <circle class="cls-1" cx="147.5" cy="99" r="12"/>
        <circle class="cls-1" cx="127.2" cy="121.7" r="5.9"/>
        <path class="cls-1" d="M115.8,130c-4,.3-7.9,2-10.7,4.9-3.9,4-5.4,10.1-4,15.5.6,2.4,1.9,4.8,4,6.1,1.7,1.1,3.8,1.4,5.8,1.5,3.6.3,7.1.2,10.7.2,2.2,0,4.5-.2,6.4-1.3,1.4-.9,2.4-2.3,3.1-3.7,3.7-7.5.7-17-6.5-21.2s-2.6-1.3-4.1-1.6c-1.5-.4-3.1-.5-4.7-.4Z"/>
      </g>
    </g>
  </g>
</svg>